<?xml version="1.0" encoding="UTF-8"?>
<svg id="Layer_1" data-name="Layer 1" xmlns="http://www.w3.org/2000/svg" viewBox="0 0 277.75 276">
  <defs>
    <style>
      .cls-1, .cls-2 {
        stroke-width: 0px;
      }

      .cls-2 {
        fill: #fff;
      }
    </style>
  </defs>
  <path class="cls-1" d="M277.75,115.21v143.39c0,9.61-7.79,17.4-17.4,17.4H116.97c-9.61,0-17.4-7.79-17.4-17.4v-63.02c0-9.61-7.79-17.4-17.4-17.4H17.4c-9.61,0-17.4-7.79-17.4-17.4V17.4C0,7.79,7.79,0,17.4,0h143.38c9.61,0,17.4,7.79,17.4,17.4v63.01c0,9.61,7.79,17.4,17.4,17.4h64.77c9.61,0,17.4,7.79,17.4,17.4Z"/>
  <path class="cls-2" d="M208.52,130.24v15.52c0,4.45-3.6,8.05-8.05,8.05h-37.74c-4.45,0-8.05,3.6-8.05,8.05v37.74c0,4.45-3.6,8.05-8.05,8.05h-15.52c-4.45,0-8.05-3.6-8.05-8.05v-37.74c0-4.45-3.6-8.05-8.05-8.05h-37.74c-4.45,0-8.05-3.6-8.05-8.05v-15.52c0-4.45,3.6-8.05,8.05-8.05h37.74c4.45,0,8.05-3.6,8.05-8.05v-37.74c0-4.45,3.6-8.05,8.05-8.05h15.52c4.45,0,8.05,3.6,8.05,8.05v37.74c0,4.45,3.6,8.05,8.05,8.05h37.74c4.45,0,8.05,3.6,8.05,8.05Z"/>
</svg>